<?xml version="1.0" encoding="UTF-8" standalone="no"?>
<!DOCTYPE svg PUBLIC "-//W3C//DTD SVG 1.1//EN"
 "http://www.w3.org/Graphics/SVG/1.1/DTD/svg11.dtd">
<!-- Generated by graphviz version 2.50.0 (0)
 -->
<!-- Title: packages_segregeation_system Pages: 1 -->
<svg width="1973pt" height="260pt"
 viewBox="0.00 0.00 1972.50 260.00" xmlns="http://www.w3.org/2000/svg" xmlns:xlink="http://www.w3.org/1999/xlink">
<g id="graph0" class="graph" transform="scale(1 1) rotate(0) translate(4 256)">
<title>packages_segregeation_system</title>
<polygon fill="white" stroke="transparent" points="-4,4 -4,-256 1968.5,-256 1968.5,4 -4,4"/>
<!-- segregation_system -->
<g id="node1" class="node">
<title>segregation_system</title>
<polygon fill="none" stroke="black" points="124,-36 0,-36 0,0 124,0 124,-36"/>
<text text-anchor="middle" x="62" y="-14.3" font-family="Times New Roman,serif" font-size="14.00">segregation_system</text>
</g>
<!-- segregation_system.SegregationSystemJsonHandler -->
<g id="node2" class="node">
<title>segregation_system.SegregationSystemJsonHandler</title>
<polygon fill="none" stroke="black" points="650,-252 350,-252 350,-216 650,-216 650,-252"/>
<text text-anchor="middle" x="500" y="-230.3" font-family="Times New Roman,serif" font-size="14.00">segregation_system.SegregationSystemJsonHandler</text>
</g>
<!-- segregation_system.balancing_report -->
<g id="node3" class="node">
<title>segregation_system.balancing_report</title>
<polygon fill="none" stroke="black" points="1486.5,-180 1267.5,-180 1267.5,-144 1486.5,-144 1486.5,-180"/>
<text text-anchor="middle" x="1377" y="-158.3" font-family="Times New Roman,serif" font-size="14.00">segregation_system.balancing_report</text>
</g>
<!-- segregation_system.prepared_session -->
<g id="node12" class="node">
<title>segregation_system.prepared_session</title>
<polygon fill="none" stroke="black" points="1311.5,-252 1090.5,-252 1090.5,-216 1311.5,-216 1311.5,-252"/>
<text text-anchor="middle" x="1201" y="-230.3" font-family="Times New Roman,serif" font-size="14.00">segregation_system.prepared_session</text>
</g>
<!-- segregation_system.balancing_report&#45;&gt;segregation_system.prepared_session -->
<g id="edge1" class="edge">
<title>segregation_system.balancing_report&#45;&gt;segregation_system.prepared_session</title>
<path fill="none" stroke="black" d="M1333.95,-180.12C1309.67,-189.78 1279.16,-201.91 1253.49,-212.12"/>
<polygon fill="black" stroke="black" points="1243.91,-215.93 1251.54,-208.05 1248.56,-214.08 1253.21,-212.24 1253.21,-212.24 1253.21,-212.24 1248.56,-214.08 1254.87,-216.42 1243.91,-215.93 1243.91,-215.93"/>
</g>
<!-- segregation_system.balancing_report_model -->
<g id="node4" class="node">
<title>segregation_system.balancing_report_model</title>
<polygon fill="none" stroke="black" points="1513,-108 1253,-108 1253,-72 1513,-72 1513,-108"/>
<text text-anchor="middle" x="1383" y="-86.3" font-family="Times New Roman,serif" font-size="14.00">segregation_system.balancing_report_model</text>
</g>
<!-- segregation_system.balancing_report_model&#45;&gt;segregation_system.balancing_report -->
<g id="edge2" class="edge">
<title>segregation_system.balancing_report_model&#45;&gt;segregation_system.balancing_report</title>
<path fill="none" stroke="black" d="M1381.52,-108.3C1380.86,-116.02 1380.06,-125.29 1379.32,-133.89"/>
<polygon fill="black" stroke="black" points="1378.47,-143.9 1374.84,-133.55 1378.89,-138.91 1379.32,-133.93 1379.32,-133.93 1379.32,-133.93 1378.89,-138.91 1383.8,-134.32 1378.47,-143.9 1378.47,-143.9"/>
</g>
<!-- segregation_system.balancing_report_model&#45;&gt;segregation_system.prepared_session -->
<g id="edge3" class="edge">
<title>segregation_system.balancing_report_model&#45;&gt;segregation_system.prepared_session</title>
<path fill="none" stroke="black" d="M1324.12,-108.06C1302.07,-116.43 1277.82,-128.19 1259,-144 1238.61,-161.12 1222.77,-187.24 1212.84,-206.76"/>
<polygon fill="black" stroke="black" points="1208.44,-215.74 1208.79,-204.78 1210.64,-211.25 1212.83,-206.76 1212.83,-206.76 1212.83,-206.76 1210.64,-211.25 1216.88,-208.74 1208.44,-215.74 1208.44,-215.74"/>
</g>
<!-- segregation_system.segregation_system_parameters -->
<g id="node16" class="node">
<title>segregation_system.segregation_system_parameters</title>
<polygon fill="none" stroke="black" points="651,-180 349,-180 349,-144 651,-144 651,-180"/>
<text text-anchor="middle" x="500" y="-158.3" font-family="Times New Roman,serif" font-size="14.00">segregation_system.segregation_system_parameters</text>
</g>
<!-- segregation_system.balancing_report_model&#45;&gt;segregation_system.segregation_system_parameters -->
<g id="edge4" class="edge">
<title>segregation_system.balancing_report_model&#45;&gt;segregation_system.segregation_system_parameters</title>
<path fill="none" stroke="black" d="M1252.8,-107.13C1249.84,-107.43 1246.9,-107.72 1244,-108 1018.7,-129.75 961.77,-127.87 736,-144 711.87,-145.72 686.36,-147.55 661.37,-149.35"/>
<polygon fill="black" stroke="black" points="651.08,-150.09 660.73,-144.89 656.06,-149.73 661.05,-149.37 661.05,-149.37 661.05,-149.37 656.06,-149.73 661.37,-153.86 651.08,-150.09 651.08,-150.09"/>
</g>
<!-- segregation_system.balancing_report_view -->
<g id="node5" class="node">
<title>segregation_system.balancing_report_view</title>
<polygon fill="none" stroke="black" points="1383,-36 1131,-36 1131,0 1383,0 1383,-36"/>
<text text-anchor="middle" x="1257" y="-14.3" font-family="Times New Roman,serif" font-size="14.00">segregation_system.balancing_report_view</text>
</g>
<!-- segregation_system.coverage_report -->
<g id="node6" class="node">
<title>segregation_system.coverage_report</title>
<polygon fill="none" stroke="black" points="1172.5,-180 957.5,-180 957.5,-144 1172.5,-144 1172.5,-180"/>
<text text-anchor="middle" x="1065" y="-158.3" font-family="Times New Roman,serif" font-size="14.00">segregation_system.coverage_report</text>
</g>
<!-- segregation_system.coverage_report&#45;&gt;segregation_system.prepared_session -->
<g id="edge5" class="edge">
<title>segregation_system.coverage_report&#45;&gt;segregation_system.prepared_session</title>
<path fill="none" stroke="black" d="M1098.27,-180.12C1116.46,-189.49 1139.19,-201.19 1158.64,-211.2"/>
<polygon fill="black" stroke="black" points="1167.6,-215.81 1156.65,-215.23 1163.16,-213.52 1158.71,-211.23 1158.71,-211.23 1158.71,-211.23 1163.16,-213.52 1160.77,-207.23 1167.6,-215.81 1167.6,-215.81"/>
</g>
<!-- segregation_system.coverage_report_model -->
<g id="node7" class="node">
<title>segregation_system.coverage_report_model</title>
<polygon fill="none" stroke="black" points="1761.5,-180 1504.5,-180 1504.5,-144 1761.5,-144 1761.5,-180"/>
<text text-anchor="middle" x="1633" y="-158.3" font-family="Times New Roman,serif" font-size="14.00">segregation_system.coverage_report_model</text>
</g>
<!-- segregation_system.coverage_report_model&#45;&gt;segregation_system.prepared_session -->
<g id="edge6" class="edge">
<title>segregation_system.coverage_report_model&#45;&gt;segregation_system.prepared_session</title>
<path fill="none" stroke="black" d="M1527.87,-180.03C1463.85,-190.41 1382,-203.67 1316.22,-214.33"/>
<polygon fill="black" stroke="black" points="1306.22,-215.95 1315.37,-209.91 1311.16,-215.15 1316.09,-214.35 1316.09,-214.35 1316.09,-214.35 1311.16,-215.15 1316.81,-218.79 1306.22,-215.95 1306.22,-215.95"/>
</g>
<!-- segregation_system.coverage_report_view -->
<g id="node8" class="node">
<title>segregation_system.coverage_report_view</title>
<polygon fill="none" stroke="black" points="1649,-36 1401,-36 1401,0 1649,0 1649,-36"/>
<text text-anchor="middle" x="1525" y="-14.3" font-family="Times New Roman,serif" font-size="14.00">segregation_system.coverage_report_view</text>
</g>
<!-- segregation_system.integration_test -->
<g id="node9" class="node">
<title>segregation_system.integration_test</title>
<polygon fill="none" stroke="black" points="354,-36 142,-36 142,0 354,0 354,-36"/>
<text text-anchor="middle" x="248" y="-14.3" font-family="Times New Roman,serif" font-size="14.00">segregation_system.integration_test</text>
</g>
<!-- segregation_system.integration_test&#45;&gt;segregation_system.SegregationSystemJsonHandler -->
<g id="edge7" class="edge">
<title>segregation_system.integration_test&#45;&gt;segregation_system.SegregationSystemJsonHandler</title>
<path fill="none" stroke="black" d="M142,-34.89C122.02,-42.82 103.5,-54.59 91,-72 63.01,-110.99 59.31,-143.94 91,-180 107.83,-199.15 232.53,-213.4 339.87,-222.27"/>
<polygon fill="black" stroke="black" points="349.87,-223.08 339.53,-226.76 344.88,-222.68 339.9,-222.27 339.9,-222.27 339.9,-222.27 344.88,-222.68 340.27,-217.79 349.87,-223.08 349.87,-223.08"/>
</g>
<!-- segregation_system.learning_set_splitter -->
<g id="node11" class="node">
<title>segregation_system.learning_set_splitter</title>
<polygon fill="none" stroke="black" points="831,-108 593,-108 593,-72 831,-72 831,-108"/>
<text text-anchor="middle" x="712" y="-86.3" font-family="Times New Roman,serif" font-size="14.00">segregation_system.learning_set_splitter</text>
</g>
<!-- segregation_system.integration_test&#45;&gt;segregation_system.learning_set_splitter -->
<g id="edge8" class="edge">
<title>segregation_system.integration_test&#45;&gt;segregation_system.learning_set_splitter</title>
<path fill="none" stroke="black" d="M354.16,-35.02C424.04,-45.56 515.76,-59.39 588.84,-70.42"/>
<polygon fill="black" stroke="black" points="599.03,-71.96 588.47,-74.91 594.08,-71.21 589.14,-70.46 589.14,-70.46 589.14,-70.46 594.08,-71.21 589.81,-66.01 599.03,-71.96 599.03,-71.96"/>
</g>
<!-- segregation_system.integration_test&#45;&gt;segregation_system.prepared_session -->
<g id="edge9" class="edge">
<title>segregation_system.integration_test&#45;&gt;segregation_system.prepared_session</title>
<path fill="none" stroke="black" d="M194.78,-36.04C178.11,-44.16 161.58,-55.77 152,-72 143.87,-85.78 142.93,-94.82 152,-108 202.71,-181.72 252.56,-161.03 340,-180 477.63,-209.86 877.75,-224.45 1080.39,-230.09"/>
<polygon fill="black" stroke="black" points="1090.48,-230.37 1080.36,-234.59 1085.48,-230.23 1080.48,-230.09 1080.48,-230.09 1080.48,-230.09 1085.48,-230.23 1080.61,-225.6 1090.48,-230.37 1090.48,-230.37"/>
</g>
<!-- segregation_system.segregation_system_database_controller -->
<g id="node14" class="node">
<title>segregation_system.segregation_system_database_controller</title>
<polygon fill="none" stroke="black" points="1234.5,-108 887.5,-108 887.5,-72 1234.5,-72 1234.5,-108"/>
<text text-anchor="middle" x="1061" y="-86.3" font-family="Times New Roman,serif" font-size="14.00">segregation_system.segregation_system_database_controller</text>
</g>
<!-- segregation_system.integration_test&#45;&gt;segregation_system.segregation_system_database_controller -->
<g id="edge10" class="edge">
<title>segregation_system.integration_test&#45;&gt;segregation_system.segregation_system_database_controller</title>
<path fill="none" stroke="black" d="M354.29,-28.15C486.98,-39.58 716.11,-59.3 877.43,-73.19"/>
<polygon fill="black" stroke="black" points="887.47,-74.06 877.12,-77.68 882.49,-73.63 877.5,-73.2 877.5,-73.2 877.5,-73.2 882.49,-73.63 877.89,-68.72 887.47,-74.06 887.47,-74.06"/>
</g>
<!-- segregation_system.integration_test&#45;&gt;segregation_system.segregation_system_parameters -->
<g id="edge11" class="edge">
<title>segregation_system.integration_test&#45;&gt;segregation_system.segregation_system_parameters</title>
<path fill="none" stroke="black" d="M202.45,-36.02C186.75,-44.34 170.89,-56.07 162,-72 154.2,-85.97 151.6,-95.84 162,-108 185.56,-135.54 263.45,-148.87 338.52,-155.27"/>
<polygon fill="black" stroke="black" points="348.61,-156.09 338.28,-159.77 343.63,-155.69 338.65,-155.28 338.65,-155.28 338.65,-155.28 343.63,-155.69 339.01,-150.8 348.61,-156.09 348.61,-156.09"/>
</g>
<!-- segregation_system.session_receiver_and_configuration_sender -->
<g id="node17" class="node">
<title>segregation_system.session_receiver_and_configuration_sender</title>
<polygon fill="none" stroke="black" points="536.5,-108 171.5,-108 171.5,-72 536.5,-72 536.5,-108"/>
<text text-anchor="middle" x="354" y="-86.3" font-family="Times New Roman,serif" font-size="14.00">segregation_system.session_receiver_and_configuration_sender</text>
</g>
<!-- segregation_system.integration_test&#45;&gt;segregation_system.session_receiver_and_configuration_sender -->
<g id="edge12" class="edge">
<title>segregation_system.integration_test&#45;&gt;segregation_system.session_receiver_and_configuration_sender</title>
<path fill="none" stroke="black" d="M273.93,-36.12C287.66,-45.19 304.71,-56.45 319.54,-66.24"/>
<polygon fill="black" stroke="black" points="327.97,-71.81 317.15,-70.05 323.8,-69.05 319.63,-66.3 319.63,-66.3 319.63,-66.3 323.8,-69.05 322.1,-62.54 327.97,-71.81 327.97,-71.81"/>
</g>
<!-- segregation_system.learning_set -->
<g id="node10" class="node">
<title>segregation_system.learning_set</title>
<polygon fill="none" stroke="black" points="939,-180 745,-180 745,-144 939,-144 939,-180"/>
<text text-anchor="middle" x="842" y="-158.3" font-family="Times New Roman,serif" font-size="14.00">segregation_system.learning_set</text>
</g>
<!-- segregation_system.learning_set&#45;&gt;segregation_system.prepared_session -->
<g id="edge13" class="edge">
<title>segregation_system.learning_set&#45;&gt;segregation_system.prepared_session</title>
<path fill="none" stroke="black" d="M929.36,-180.03C982.02,-190.3 1049.19,-203.4 1103.56,-214"/>
<polygon fill="black" stroke="black" points="1113.56,-215.95 1102.88,-218.45 1108.65,-214.99 1103.74,-214.04 1103.74,-214.04 1103.74,-214.04 1108.65,-214.99 1104.6,-209.62 1113.56,-215.95 1113.56,-215.95"/>
</g>
<!-- segregation_system.learning_set_splitter&#45;&gt;segregation_system.learning_set -->
<g id="edge14" class="edge">
<title>segregation_system.learning_set_splitter&#45;&gt;segregation_system.learning_set</title>
<path fill="none" stroke="black" d="M743.8,-108.12C761.11,-117.45 782.72,-129.08 801.26,-139.06"/>
<polygon fill="black" stroke="black" points="810.08,-143.81 799.14,-143.03 805.67,-141.44 801.27,-139.07 801.27,-139.07 801.27,-139.07 805.67,-141.44 803.4,-135.11 810.08,-143.81 810.08,-143.81"/>
</g>
<!-- segregation_system.learning_set_splitter&#45;&gt;segregation_system.prepared_session -->
<g id="edge15" class="edge">
<title>segregation_system.learning_set_splitter&#45;&gt;segregation_system.prepared_session</title>
<path fill="none" stroke="black" d="M711.32,-108.02C711.52,-128.44 715.25,-162.15 736,-180 761.66,-202.07 950.88,-217.86 1079.9,-226.2"/>
<polygon fill="black" stroke="black" points="1090.24,-226.86 1079.98,-230.71 1085.25,-226.54 1080.26,-226.22 1080.26,-226.22 1080.26,-226.22 1085.25,-226.54 1080.55,-221.73 1090.24,-226.86 1090.24,-226.86"/>
</g>
<!-- segregation_system.learning_set_splitter&#45;&gt;segregation_system.segregation_system_parameters -->
<g id="edge16" class="edge">
<title>segregation_system.learning_set_splitter&#45;&gt;segregation_system.segregation_system_parameters</title>
<path fill="none" stroke="black" d="M660.41,-108.03C630.53,-117.9 592.74,-130.38 561.34,-140.75"/>
<polygon fill="black" stroke="black" points="551.82,-143.89 559.91,-136.48 556.57,-142.32 561.32,-140.75 561.32,-140.75 561.32,-140.75 556.57,-142.32 562.73,-145.03 551.82,-143.89 551.82,-143.89"/>
</g>
<!-- segregation_system.segregation_database_manager -->
<g id="node13" class="node">
<title>segregation_system.segregation_database_manager</title>
<polygon fill="none" stroke="black" points="1964.5,-36 1667.5,-36 1667.5,0 1964.5,0 1964.5,-36"/>
<text text-anchor="middle" x="1816" y="-14.3" font-family="Times New Roman,serif" font-size="14.00">segregation_system.segregation_database_manager</text>
</g>
<!-- segregation_system.segregation_system_database_controller&#45;&gt;segregation_system.prepared_session -->
<g id="edge17" class="edge">
<title>segregation_system.segregation_system_database_controller&#45;&gt;segregation_system.prepared_session</title>
<path fill="none" stroke="black" d="M1129.62,-108.12C1149.08,-116.08 1168.59,-127.56 1182,-144 1196.09,-161.28 1200.42,-186.54 1201.47,-205.75"/>
<polygon fill="black" stroke="black" points="1201.75,-215.97 1196.98,-206.1 1201.61,-210.97 1201.47,-205.98 1201.47,-205.98 1201.47,-205.98 1201.61,-210.97 1205.97,-205.85 1201.75,-215.97 1201.75,-215.97"/>
</g>
<!-- segregation_system.segregation_system_orchestrator -->
<g id="node15" class="node">
<title>segregation_system.segregation_system_orchestrator</title>
<polygon fill="none" stroke="black" points="1113,-36 807,-36 807,0 1113,0 1113,-36"/>
<text text-anchor="middle" x="960" y="-14.3" font-family="Times New Roman,serif" font-size="14.00">segregation_system.segregation_system_orchestrator</text>
</g>
<!-- segregation_system.segregation_system_orchestrator&#45;&gt;segregation_system.SegregationSystemJsonHandler -->
<g id="edge18" class="edge">
<title>segregation_system.segregation_system_orchestrator&#45;&gt;segregation_system.SegregationSystemJsonHandler</title>
<path fill="none" stroke="black" d="M931.47,-36.05C915.58,-45.93 895.7,-58.98 879,-72 860.4,-86.51 860.24,-95.89 840,-108 798.03,-133.12 781.28,-125.5 736,-144 701.4,-158.13 694.69,-166.1 660,-180 629.86,-192.08 595.79,-203.64 566.86,-212.87"/>
<polygon fill="black" stroke="black" points="557.26,-215.91 565.43,-208.6 562.02,-214.4 566.79,-212.89 566.79,-212.89 566.79,-212.89 562.02,-214.4 568.15,-217.18 557.26,-215.91 557.26,-215.91"/>
</g>
<!-- segregation_system.segregation_system_orchestrator&#45;&gt;segregation_system.balancing_report_model -->
<g id="edge19" class="edge">
<title>segregation_system.segregation_system_orchestrator&#45;&gt;segregation_system.balancing_report_model</title>
<path fill="none" stroke="black" d="M1062.94,-36.03C1125.5,-46.39 1205.44,-59.62 1269.78,-70.26"/>
<polygon fill="black" stroke="black" points="1279.97,-71.95 1269.37,-74.76 1275.04,-71.13 1270.1,-70.32 1270.1,-70.32 1270.1,-70.32 1275.04,-71.13 1270.84,-65.88 1279.97,-71.95 1279.97,-71.95"/>
</g>
<!-- segregation_system.segregation_system_orchestrator&#45;&gt;segregation_system.coverage_report_model -->
<g id="edge20" class="edge">
<title>segregation_system.segregation_system_orchestrator&#45;&gt;segregation_system.coverage_report_model</title>
<path fill="none" stroke="black" d="M1113.05,-35.12C1116.06,-35.42 1119.04,-35.71 1122,-36 1210.83,-44.66 1439.21,-38.66 1522,-72 1557.1,-86.13 1589.94,-115.22 1610.65,-136.3"/>
<polygon fill="black" stroke="black" points="1617.72,-143.67 1607.55,-139.57 1614.26,-140.06 1610.8,-136.45 1610.8,-136.45 1610.8,-136.45 1614.26,-140.06 1614.04,-133.34 1617.72,-143.67 1617.72,-143.67"/>
</g>
<!-- segregation_system.segregation_system_orchestrator&#45;&gt;segregation_system.learning_set_splitter -->
<g id="edge21" class="edge">
<title>segregation_system.segregation_system_orchestrator&#45;&gt;segregation_system.learning_set_splitter</title>
<path fill="none" stroke="black" d="M899.65,-36.03C864.25,-46.03 819.34,-58.7 782.34,-69.15"/>
<polygon fill="black" stroke="black" points="772.62,-71.89 781.02,-64.84 777.43,-70.53 782.25,-69.17 782.25,-69.17 782.25,-69.17 777.43,-70.53 783.47,-73.5 772.62,-71.89 772.62,-71.89"/>
</g>
<!-- segregation_system.segregation_system_orchestrator&#45;&gt;segregation_system.prepared_session -->
<g id="edge22" class="edge">
<title>segregation_system.segregation_system_orchestrator&#45;&gt;segregation_system.prepared_session</title>
<path fill="none" stroke="black" d="M1113.05,-35.16C1116.06,-35.44 1119.04,-35.72 1122,-36 1267.57,-49.58 1686.2,-24.9 1771,-144 1780.28,-157.03 1781.78,-168.17 1771,-180 1741.38,-212.5 1480.27,-225.4 1321.91,-230.26"/>
<polygon fill="black" stroke="black" points="1311.63,-230.57 1321.49,-225.77 1316.63,-230.42 1321.63,-230.27 1321.63,-230.27 1321.63,-230.27 1316.63,-230.42 1321.76,-234.77 1311.63,-230.57 1311.63,-230.57"/>
</g>
<!-- segregation_system.segregation_system_orchestrator&#45;&gt;segregation_system.segregation_system_database_controller -->
<g id="edge23" class="edge">
<title>segregation_system.segregation_system_orchestrator&#45;&gt;segregation_system.segregation_system_database_controller</title>
<path fill="none" stroke="black" d="M984.71,-36.12C997.67,-45.11 1013.73,-56.24 1027.77,-65.97"/>
<polygon fill="black" stroke="black" points="1036.2,-71.81 1025.42,-69.81 1032.09,-68.96 1027.98,-66.11 1027.98,-66.11 1027.98,-66.11 1032.09,-68.96 1030.54,-62.42 1036.2,-71.81 1036.2,-71.81"/>
</g>
<!-- segregation_system.segregation_system_orchestrator&#45;&gt;segregation_system.segregation_system_parameters -->
<g id="edge24" class="edge">
<title>segregation_system.segregation_system_orchestrator&#45;&gt;segregation_system.segregation_system_parameters</title>
<path fill="none" stroke="black" d="M806.54,-30.34C720.29,-38.7 622.43,-52.13 584,-72 576.29,-75.98 544.23,-111.11 522.03,-136.02"/>
<polygon fill="black" stroke="black" points="515.21,-143.7 518.48,-133.23 518.53,-139.96 521.85,-136.22 521.85,-136.22 521.85,-136.22 518.53,-139.96 525.21,-139.21 515.21,-143.7 515.21,-143.7"/>
</g>
<!-- segregation_system.segregation_system_orchestrator&#45;&gt;segregation_system.session_receiver_and_configuration_sender -->
<g id="edge25" class="edge">
<title>segregation_system.segregation_system_orchestrator&#45;&gt;segregation_system.session_receiver_and_configuration_sender</title>
<path fill="none" stroke="black" d="M812.53,-36.03C721.35,-46.57 604.38,-60.08 511.41,-70.82"/>
<polygon fill="black" stroke="black" points="501.34,-71.98 510.76,-66.36 506.31,-71.41 511.28,-70.83 511.28,-70.83 511.28,-70.83 506.31,-71.41 511.79,-75.3 501.34,-71.98 501.34,-71.98"/>
</g>
<!-- segregation_system.segregation_system_parameters&#45;&gt;segregation_system.SegregationSystemJsonHandler -->
<g id="edge26" class="edge">
<title>segregation_system.segregation_system_parameters&#45;&gt;segregation_system.SegregationSystemJsonHandler</title>
<path fill="none" stroke="black" d="M500,-180.3C500,-188.02 500,-197.29 500,-205.89"/>
<polygon fill="black" stroke="black" points="500,-215.9 495.5,-205.9 500,-210.9 500,-205.9 500,-205.9 500,-205.9 500,-210.9 504.5,-205.9 500,-215.9 500,-215.9"/>
</g>
<!-- segregation_system.session_receiver_and_configuration_sender&#45;&gt;segregation_system.segregation_system_parameters -->
<g id="edge27" class="edge">
<title>segregation_system.session_receiver_and_configuration_sender&#45;&gt;segregation_system.segregation_system_parameters</title>
<path fill="none" stroke="black" d="M389.72,-108.12C409.5,-117.61 434.27,-129.49 455.33,-139.58"/>
<polygon fill="black" stroke="black" points="464.4,-143.93 453.44,-143.67 459.89,-141.77 455.38,-139.61 455.38,-139.61 455.38,-139.61 459.89,-141.77 457.33,-135.55 464.4,-143.93 464.4,-143.93"/>
</g>
</g>
</svg>
